<?xml version="1.0" ?><svg style="enable-background:new 0 0 64 64;" version="1.1" viewBox="0 0 64 64" xml:space="preserve" xmlns="http://www.w3.org/2000/svg" xmlns:xlink="http://www.w3.org/1999/xlink"><style type="text/css">
	.st0{fill:#0072FF;}
</style><g id="GUIDES_64"/><g id="Layer_3"/><g id="Layer_2"><path class="st0" d="M16.9,24.5c1,1.7,3.5,1.9,4.6,0.2c1.2-1.7,2.7-3.1,4.5-4.1c2.7-1.4,5.3-1.3,9.2-1.4c4.1,0,10.9,0,16.7,0   c2.3,0,3.6-2.6,2.2-4.4c-9.7-12.6-28.3-14.6-40.4-4c-1.8,1.6-2.2,4.2-1,6.3L16.9,24.5z"/><path class="st0" d="M33.9,41.1c3.6-0.7,6.5-3.6,7.3-7.3c1.2-6-3.4-11.2-9.1-11.2c-5.1,0-9.3,4.2-9.3,9.3   C22.7,37.7,27.9,42.3,33.9,41.1z"/><path class="st0" d="M24.5,59c1.2,0.3,2.4-0.2,3.1-1.3l3.6-6.1c1.6-2.8,0.3-6.5-2.8-7.4c-2.9-0.8-5.6-2.8-7.5-6   c-2-3.4-6.5-11.3-9.9-17.2c-1.1-2-4.1-1.8-4.9,0.3C-0.2,36.5,8.1,54.5,24.5,59z"/><path class="st0" d="M49.2,22.7c-3.3,0-5.7,3.1-4.9,6.3c0.8,3.1,0.3,6.5-1.3,9.4c-1.8,3-6.6,11.2-10.2,17.3c-1.2,2,0.5,4.4,2.7,4.1   c16.6-2.1,28-18.6,23.5-35.1c-0.3-1.2-1.4-2-2.7-2H49.2z"/></g></svg>