<?xml version="1.0" ?><svg fill="none" height="64" viewBox="0 0 64 64" width="64" xmlns="http://www.w3.org/2000/svg"><path clip-rule="evenodd" d="M49.4522 28.8726V44.148L31.9956 52.875L14.5391 44.148V28.8726L31.9956 20.1431L49.4522 28.8726Z" fill="url(#paint0_linear)" fill-rule="evenodd"/><path clip-rule="evenodd" d="M31.9946 20.1431V52.875L14.5381 44.148V28.8726L31.9946 20.1431Z" fill="url(#paint1_linear)" fill-rule="evenodd"/><path clip-rule="evenodd" d="M56 21.2344L49.4517 28.8709L31.9951 20.1438L38.541 12.5049L56 21.2344Z" fill="url(#paint2_linear)" fill-rule="evenodd"/><path clip-rule="evenodd" d="M7.99999 21.2295L14.5483 28.866L32.0049 20.1389L25.459 12.5L7.99999 21.2295Z" fill="url(#paint3_linear)" fill-rule="evenodd"/><path clip-rule="evenodd" d="M29.7578 24.9494V24.0133C29.4329 23.9673 29.1053 23.9434 28.7772 23.9419C24.7645 23.9419 21.5 27.207 21.5 31.2196C21.5 33.6811 22.7302 35.86 24.6068 37.1776C23.3502 35.8338 22.6517 34.0625 22.6527 32.2228C22.6527 28.2673 25.8243 25.0418 29.7578 24.9494Z" fill="#00F2EA" fill-rule="evenodd"/><path clip-rule="evenodd" d="M29.9293 35.5462C31.7196 35.5462 33.1801 34.122 33.2466 32.3471L33.2527 16.5027H36.1473C36.0855 16.1719 36.0542 15.8361 36.0538 15.4995H32.1006L32.094 31.3445C32.028 33.1189 30.567 34.5425 28.7772 34.5425C28.2399 34.5427 27.7106 34.4118 27.2354 34.1611C27.5422 34.5892 27.9466 34.9381 28.4151 35.179C28.8835 35.4199 29.4026 35.5457 29.9293 35.5462ZM41.5545 21.8807V21.0001C40.4907 21.0011 39.4497 20.6917 38.5593 20.1097C39.34 21.0086 40.3911 21.63 41.555 21.8807" fill="#00F2EA" fill-rule="evenodd"/><path clip-rule="evenodd" d="M38.5585 20.1088C37.6859 19.1103 37.2052 17.829 37.2058 16.5029H36.1466C36.2837 17.2359 36.5682 17.9334 36.9828 18.5532C37.3974 19.173 37.9334 19.7022 38.5585 20.1088ZM28.7765 27.8955C27.8954 27.8966 27.0507 28.247 26.4276 28.8701C25.8046 29.4931 25.4542 30.3378 25.4531 31.2189C25.4537 31.825 25.6199 32.4194 25.9338 32.9379C26.2477 33.4564 26.6973 33.8792 27.2341 34.1608C26.8254 33.5972 26.6053 32.9188 26.6053 32.2226C26.6061 31.3414 26.9565 30.4966 27.5796 29.8734C28.2026 29.2503 29.0474 28.8997 29.9286 28.8987C30.2711 28.8987 30.5992 28.9553 30.9092 29.0526V25.0163C30.5844 24.9703 30.2567 24.9464 29.9286 24.9449C29.8709 24.9449 29.8143 24.9482 29.7571 24.9493V28.0495C29.44 27.9485 29.1093 27.8966 28.7765 27.8955Z" fill="#FF004F" fill-rule="evenodd"/><path clip-rule="evenodd" d="M41.5551 21.8804V24.9531C39.5048 24.9531 37.6056 24.2974 36.0544 23.1843V31.2189C36.0544 35.2315 32.7905 38.4961 28.7778 38.4961C27.2272 38.4961 25.7892 38.0069 24.6074 37.1769C25.2869 37.9096 26.1103 38.4941 27.0262 38.8937C27.9421 39.2933 28.9307 39.4995 29.9299 39.4992C33.9426 39.4992 37.2071 36.2347 37.2071 32.2226V24.188C38.8096 25.3403 40.734 25.9591 42.7077 25.9568V22.0025C42.312 22.0025 41.9272 21.9596 41.5551 21.8799" fill="#FF004F" fill-rule="evenodd"/><path clip-rule="evenodd" d="M36.0535 31.2189V23.1843C37.6559 24.3367 39.5803 24.9555 41.5541 24.9531V21.8804C40.3904 21.6294 39.3394 21.0078 38.5589 20.1088C37.9338 19.7022 37.3977 19.173 36.9831 18.5532C36.5686 17.9334 36.2841 17.2359 36.1469 16.5029H33.2523L33.2463 32.3474C33.1798 34.1217 31.7193 35.546 29.929 35.546C29.4022 35.5454 28.8832 35.4195 28.4147 35.1786C27.9463 34.9378 27.5419 34.5889 27.235 34.1608C26.6982 33.8793 26.2484 33.4565 25.9344 32.938C25.6204 32.4195 25.4541 31.8251 25.4535 31.2189C25.4545 30.3378 25.805 29.4931 26.428 28.8701C27.051 28.247 27.8958 27.8966 28.7769 27.8955C29.1188 27.8955 29.4469 27.9516 29.7575 28.0495V24.9493C25.824 25.0416 22.6523 28.2671 22.6523 32.2226C22.6523 34.1355 23.3955 35.8769 24.6064 37.1774C25.8272 38.0368 27.284 38.4974 28.7769 38.4961C32.7895 38.4961 36.0535 35.2315 36.0535 31.2189Z" fill="white" fill-rule="evenodd"/><path clip-rule="evenodd" d="M49.4517 44.1465L31.9951 52.876V37.6006L49.4517 28.8711V44.1465Z" fill="url(#paint4_linear)" fill-rule="evenodd"/><path clip-rule="evenodd" d="M14.5361 44.1465L31.9951 52.876V37.6006L14.5361 28.8711V44.1465Z" fill="url(#paint5_linear)" fill-rule="evenodd"/><path clip-rule="evenodd" d="M49.4517 28.8711L56 34.3264L38.541 43.0559L31.9951 37.6006L49.4517 28.8711Z" fill="url(#paint6_linear)" fill-rule="evenodd"/><path clip-rule="evenodd" d="M14.5483 28.8662L7.99999 34.3215L25.459 43.051L32.0049 37.5957L14.5483 28.8662Z" fill="url(#paint7_linear)" fill-rule="evenodd"/><defs><linearGradient gradientUnits="userSpaceOnUse" id="paint0_linear" x1="49.0846" x2="51.7922" y1="52.4947" y2="24.0582"><stop stop-color="#C6803A"/><stop offset="1" stop-color="#A4601D"/></linearGradient><linearGradient gradientUnits="userSpaceOnUse" id="paint1_linear" x1="34.5473" x2="20.0843" y1="42.2998" y2="27.0333"><stop stop-color="#9B5F1F"/><stop offset="1" stop-color="#824C1B"/></linearGradient><linearGradient gradientUnits="userSpaceOnUse" id="paint2_linear" x1="48.5888" x2="54.7331" y1="27.3284" y2="11.5505"><stop stop-color="#EEC089"/><stop offset="1" stop-color="#C18B54"/></linearGradient><linearGradient gradientUnits="userSpaceOnUse" id="paint3_linear" x1="24.9262" x2="18.1602" y1="31.1385" y2="17.7606"><stop stop-color="#EEC089"/><stop offset="1" stop-color="#C18B54"/></linearGradient><linearGradient gradientUnits="userSpaceOnUse" id="paint4_linear" x1="47.1751" x2="45.1224" y1="47.2115" y2="32.6185"><stop stop-color="#9B5F1F"/><stop offset="1" stop-color="#824C1B"/></linearGradient><linearGradient gradientUnits="userSpaceOnUse" id="paint5_linear" x1="16.6804" x2="19.0294" y1="47.0171" y2="32.5478"><stop stop-color="#C6803A"/><stop offset="1" stop-color="#A4601D"/></linearGradient><linearGradient gradientUnits="userSpaceOnUse" id="paint6_linear" x1="28.0967" x2="33.0365" y1="36.0173" y2="47.3444"><stop stop-color="#EEC089"/><stop offset="1" stop-color="#C18B54"/></linearGradient><linearGradient gradientUnits="userSpaceOnUse" id="paint7_linear" x1="34.6307" x2="28.5863" y1="36.4153" y2="53.7257"><stop stop-color="#EEC089"/><stop offset="1" stop-color="#C18B54"/></linearGradient></defs></svg>